<svg width="78" height="77" viewBox="0 0 78 77" fill="none" xmlns="http://www.w3.org/2000/svg">
<path d="M77.4918 38.4917C77.4918 59.7501 60.2584 76.9835 39 76.9835C17.7416 76.9835 0.508301 59.7501 0.508301 38.4917C0.508301 17.2333 17.7416 0 39 0C60.2584 0 77.4918 17.2333 77.4918 38.4917Z" fill="white"/>
<path d="M63.5454 34.14C64.6496 34.5307 65.227 35.7402 64.8362 36.8444L64.8406 36.8415L62.0654 44.7008C61.5511 46.1515 60.5868 47.4016 59.315 48.2647L45.2597 57.8031C44.4835 58.3298 43.4308 58.1283 42.904 57.3521L40.9993 54.5454C40.4725 53.7692 40.6741 52.7165 41.4503 52.1897L43.0641 51.0945L43.9618 48.1795C44.4186 46.7101 45.3607 45.4367 46.6368 44.5707L53.579 39.8595C54.3552 39.3327 55.4079 39.5343 55.9346 40.3105C56.4614 41.0867 56.2599 42.1394 55.4837 42.6662L51.9753 45.0471C51.5894 45.309 51.4879 45.839 51.7498 46.2249C52.0117 46.6108 52.5417 46.7123 52.9277 46.4504L58.2165 42.8612L60.8409 35.4309C61.2317 34.3267 62.4411 33.7493 63.5454 34.14Z" fill="#18A0FB"/>
<path d="M13.7651 34.14C12.6609 34.5307 12.0835 35.7402 12.4742 36.8444L12.4698 36.8415L15.2451 44.7008C15.7594 46.1515 16.7237 47.4016 17.9955 48.2647L32.0508 57.8031C32.827 58.3298 33.8797 58.1283 34.4065 57.3521L36.3112 54.5454C36.8379 53.7692 36.6364 52.7165 35.8602 52.1897L34.2463 51.0945L33.3487 48.1795C32.8919 46.7101 31.9498 45.4367 30.6737 44.5707L23.7315 39.8595C22.9553 39.3327 21.9026 39.5343 21.3758 40.3105C20.8491 41.0867 21.0506 42.1394 21.8268 42.6662L25.3352 45.0471C25.7211 45.309 25.8225 45.839 25.5606 46.2249C25.2987 46.6108 24.7687 46.7123 24.3828 46.4504L19.094 42.8612L16.4695 35.4309C16.0788 34.3266 14.8693 33.7493 13.7651 34.14Z" fill="#18A0FB"/>
<path fill-rule="evenodd" clip-rule="evenodd" d="M49.7912 21.8559C50.5781 22.6698 51.2074 23.6382 51.6438 24.7069C52.0964 25.819 52.3276 27.0001 52.3243 28.2155C52.3243 29.3621 52.1029 30.5569 51.6634 31.7724C51.2987 32.7881 50.768 33.8418 50.094 34.9057C49.026 36.5895 47.5576 38.3455 45.7342 40.1257C42.7094 43.0765 39.7204 45.1115 39.5934 45.1976L38.8217 45.721C38.4799 45.9517 38.0403 45.9517 37.6984 45.721L36.9267 45.1976C36.7998 45.1149 33.8075 43.0765 30.7859 40.1257C28.9626 38.3455 27.4941 36.5895 26.4262 34.9057C25.7522 33.8418 25.2247 32.7881 24.8568 31.7724C24.4172 30.5569 24.1958 29.3621 24.1958 28.2155C24.1958 27.0001 24.427 25.819 24.8796 24.7069C25.3148 23.6375 25.9443 22.6689 26.7322 21.8559C27.5234 21.0364 28.4449 20.3925 29.4673 19.9449C30.5255 19.48 31.6455 19.2459 32.8014 19.2459C34.4066 19.2459 35.9727 19.7107 37.3337 20.5887C37.6593 20.7988 37.9687 21.0295 38.2617 21.2808C38.5547 21.0295 38.8641 20.7988 39.1897 20.5887C40.5507 19.7107 42.1168 19.2459 43.722 19.2459C44.8662 19.2431 45.9995 19.4807 47.0561 19.9449C48.0751 20.3907 49.0037 21.0395 49.7912 21.8559ZM37.972 33.2387V36.658H39.6691V33.2387H43.0884V31.5416H39.6691V28.1286H37.972V31.5416H34.559V33.2387H37.972Z" fill="#18A0FB"/>
</svg>
